<?xml version="1.0" standalone="no"?><!DOCTYPE svg PUBLIC "-//W3C//DTD SVG 1.1//EN" "http://www.w3.org/Graphics/SVG/1.1/DTD/svg11.dtd"><svg t="1702229966821" class="icon" viewBox="0 0 1024 1024" version="1.1" xmlns="http://www.w3.org/2000/svg" p-id="5416" width="200" height="200" xmlns:xlink="http://www.w3.org/1999/xlink"><path d="M945.891556 268.379022c-12.088889-10.274133-31.3344-10.274133-43.4176 0.443734l-132.9152 119.2448V261.233778c0-59.397689-42.962489-107.633778-95.772445-107.633778H164.039111C110.785422 154.049422 68.266667 201.836089 68.266667 261.233778v501.532444C68.266667 822.163911 111.229156 870.4 164.039111 870.4h510.640356c52.809956 0 95.772444-48.236089 95.772444-107.633778v-117.4528l132.920889 119.239111c5.814044 5.358933 13.869511 8.0384 21.930667 8.0384 17.004089 0 30.429867-12.060444 30.429866-26.794666V287.579022c-0.449422-7.145244-4.027733-14.290489-9.841777-19.2zM556.526933 529.635556L343.495111 652.458667c-14.768356 8.482133-33.564444-2.235733-33.564444-19.205689V387.618133c0-16.969956 18.796089-27.687822 33.564444-19.2L556.532622 491.235556a21.879467 21.879467 0 0 1 11.411911 19.2c0 8.004267-4.380444 15.365689-11.411911 19.205688z" fill="#6C7A87" p-id="5417"></path></svg>